<svg width="160" height="49" viewBox="0 0 160 49" fill="none" xmlns="http://www.w3.org/2000/svg">
<g clip-path="url(#clip0_848_10871)">
<path d="M159.446 38.3594H19.1308V38.6731H159.446V38.3594Z" fill="#777B81"/>
<path d="M19.2862 1.9211C16.5664 0.57186 13.4572 0.227353 10.508 0.94844V9.62939L10.581 9.59535C11.0253 9.2759 11.5178 9.02962 12.04 8.86586C12.56 8.70386 13.1027 8.62668 13.6473 8.63728H25.5866C24.2881 5.61232 22.2115 3.35819 19.2862 1.9211Z" fill="#8245FF"/>
<path d="M9.46487 16.6276L9.41137 16.5498C8.8101 15.6958 8.48892 14.6762 8.49221 13.6318V1.58789C5.43808 2.90584 3.16936 5.00921 1.73469 7.98553C0.423057 10.68 0.0944802 13.7481 0.805804 16.6592H9.46487V16.6276Z" fill="#8245FF"/>
<path d="M15.0041 18.4515C14.4871 18.6123 13.9478 18.6895 13.4065 18.6801H1.47202C3.78208 24.4966 10.3013 27.9057 16.519 26.3544V17.6904L16.4533 17.7342C16.0109 18.0479 15.5218 18.2899 15.0041 18.4515Z" fill="#8245FF"/>
<path d="M20.4464 32.0709V11.0786H28.8501C31.1683 11.0786 32.9094 11.5836 34.0733 12.5935C34.6366 13.0645 35.0864 13.6566 35.3891 14.3256C35.6918 14.9946 35.8397 15.7233 35.8216 16.4574C35.8216 17.6975 35.4618 18.6994 34.742 19.4629C34.0132 20.2295 33.0684 20.7562 32.0332 20.973V21.1748C32.8258 21.2078 33.5972 21.4412 34.2751 21.8532C34.983 22.2783 35.5693 22.8788 35.9773 23.5967C36.4337 24.4126 36.6606 25.337 36.6338 26.2715C36.6507 27.3245 36.3646 28.3602 35.8095 29.2551C35.2169 30.1656 34.3719 30.8838 33.3779 31.322C32.3047 31.8229 30.9843 32.0726 29.4167 32.0709H20.4464ZM24.8841 28.4454H28.5073C29.749 28.4454 30.652 28.2022 31.2161 27.7159C31.492 27.4853 31.7115 27.1948 31.8582 26.8666C32.0048 26.5383 32.0746 26.1809 32.0623 25.8216C32.0734 25.4192 31.9958 25.0193 31.8348 24.6503C31.6738 24.2813 31.4335 23.9523 31.131 23.6867C30.5134 23.1339 29.672 22.8575 28.607 22.8575H24.8841V28.4454ZM24.8841 19.8617H28.1766C28.99 19.8923 29.7892 19.6425 30.4404 19.1541C30.7337 18.924 30.9683 18.6279 31.1251 18.2897C31.2819 17.9516 31.3564 17.5812 31.3426 17.2088C31.3553 16.8619 31.2895 16.5167 31.1501 16.1988C31.0108 15.8809 30.8014 15.5986 30.5377 15.3729C29.9995 14.9093 29.2392 14.6766 28.2568 14.675H24.8841V19.8617Z" fill="#1D1D1F"/>
<path d="M45.3384 32.38C43.8981 32.4182 42.4742 32.067 41.2168 31.3636C40.0691 30.6903 39.1403 29.6998 38.542 28.5113C37.8894 27.1912 37.5657 25.733 37.5985 24.2608C37.5647 22.7838 37.8884 21.3206 38.542 19.9957C39.1375 18.8052 40.067 17.8141 41.2168 17.1434C42.4889 16.4742 43.9047 16.1245 45.342 16.1245C46.7794 16.1245 48.1952 16.4742 49.4673 17.1434C50.6165 17.8148 51.5458 18.8058 52.1421 19.9957C52.7957 21.3206 53.1194 22.7838 53.0856 24.2608C53.1184 25.733 52.7947 27.1912 52.1421 28.5113C51.543 29.6993 50.6144 30.6895 49.4673 31.3636C48.2075 32.0675 46.7811 32.4187 45.3384 32.38ZM45.3603 28.9976C45.8542 29.0172 46.3441 28.9014 46.777 28.6626C47.2099 28.4239 47.5692 28.0714 47.8162 27.6432C48.3739 26.7435 48.6527 25.6087 48.6527 24.2389C48.6527 22.8691 48.3739 21.7262 47.8162 20.8103C47.5698 20.3814 47.2106 20.0283 46.7776 19.7891C46.3447 19.5499 45.8545 19.4338 45.3603 19.4534C44.8614 19.4315 44.3659 19.5463 43.9275 19.7854C43.4891 20.0245 43.1244 20.3789 42.8727 20.8103C42.307 21.7148 42.0241 22.8545 42.0241 24.2292C42.0241 25.6039 42.3045 26.7386 42.8654 27.6335C43.1169 28.0671 43.4824 28.4236 43.9223 28.6641C44.3621 28.9046 44.8595 29.0199 45.3603 28.9976Z" fill="#1D1D1F"/>
<path d="M59.2139 32.3701C57.7112 32.3701 56.4638 31.977 55.4717 31.1907C54.4795 30.4045 53.9843 29.2324 53.9859 27.6746C53.9859 26.4993 54.2631 25.5769 54.8175 24.9074C55.3944 24.2206 56.1527 23.71 57.006 23.4338C57.9503 23.113 58.9302 22.9089 59.924 22.8259C60.9097 22.7456 61.8893 22.6019 62.8565 22.3955C63.445 22.2447 63.7392 21.9205 63.7392 21.4228V21.3572C63.7554 21.0763 63.7085 20.7954 63.6021 20.5349C63.4956 20.2745 63.3323 20.0412 63.124 19.852C62.7074 19.4856 62.1254 19.3024 61.3781 19.3024C60.7144 19.2691 60.0575 19.4489 59.5033 19.8155C59.0559 20.1305 58.7304 20.5899 58.5817 21.1164L54.5452 20.7882C54.8128 19.4028 55.6168 18.1792 56.7823 17.3839C57.9771 16.5425 59.5171 16.1219 61.4024 16.1219C62.5189 16.1133 63.6282 16.3001 64.6803 16.6738C65.6493 17.0051 66.5049 17.6036 67.1484 18.4003C67.7757 19.1817 68.0894 20.1989 68.0894 21.452V32.0685H63.9556V29.8801H63.8341C63.4375 30.6262 62.8414 31.2474 62.1125 31.6746C61.2283 32.1677 60.2256 32.4083 59.2139 32.3701ZM60.4662 29.3573C61.3297 29.3901 62.173 29.0908 62.8225 28.5208C63.12 28.264 63.3572 27.9447 63.5174 27.5858C63.6775 27.2269 63.7566 26.8371 63.7489 26.4442V24.7712C63.5037 24.9192 63.2347 25.0237 62.9538 25.08C62.5964 25.17 62.2243 25.2454 61.8036 25.3232C61.383 25.401 61.0352 25.4423 60.7143 25.491C60.055 25.5608 59.4209 25.7822 58.8614 26.1378C58.6338 26.2923 58.4499 26.5027 58.3272 26.7489C58.2046 26.995 58.1474 27.2686 58.161 27.5433C58.1454 27.8066 58.1967 28.0696 58.3103 28.3078C58.4238 28.5459 58.5958 28.7514 58.8103 28.905C59.3016 29.2247 59.8806 29.3829 60.4662 29.3573Z" fill="#1D1D1F"/>
<path d="M70.2627 32.0711V16.3263H74.4962V19.0716H74.6591C74.8814 18.1939 75.3875 17.4143 76.0986 16.8539C76.7748 16.3495 77.5992 16.0835 78.4427 16.0977C78.8405 16.0947 79.2367 16.1479 79.6196 16.2558C79.9622 16.3492 80.2897 16.4908 80.5923 16.6764L79.2841 20.2753C79.0667 20.1757 78.8414 20.0943 78.6105 20.0321C78.3459 19.9554 78.0714 19.9177 77.7959 19.9202C77.381 19.9117 76.9687 19.9872 76.5839 20.1422C76.199 20.2972 75.8494 20.5286 75.5564 20.8224C75.2491 21.1301 75.0082 21.4975 74.8485 21.9019C74.6887 22.3063 74.6135 22.7392 74.6275 23.1738V32.0784L70.2627 32.0711Z" fill="#1D1D1F"/>
<path d="M87.2215 32.3287C86.0753 32.3429 84.95 32.0208 83.985 31.4023C82.9743 30.7261 82.1779 29.7753 81.6895 28.6618C81.1221 27.4557 80.8384 25.9748 80.8384 24.2192C80.8384 22.4149 81.131 20.9138 81.7163 19.7158C82.2152 18.6124 83.0225 17.6767 84.0409 17.0215C84.9885 16.4295 86.0847 16.1183 87.202 16.1243C87.9626 16.099 88.7185 16.2514 89.41 16.5693C89.9588 16.8351 90.4471 17.2108 90.8446 17.6732C91.1827 18.0648 91.4643 18.5019 91.6811 18.9717H91.8173V11.0786H96.1748V32.0709H91.8732V29.5493H91.686C91.4655 30.0241 91.1745 30.4627 90.8227 30.8503C90.4171 31.2979 89.9249 31.6585 89.3759 31.9105C88.6973 32.2068 87.9617 32.3496 87.2215 32.3287ZM88.6051 28.8539C89.0893 28.871 89.5695 28.7616 89.9985 28.5364C90.4275 28.3113 90.7903 27.9782 91.0513 27.57C91.63 26.7189 91.9186 25.5931 91.917 24.1924C91.9153 22.7918 91.6284 21.6716 91.0562 20.8319C90.7889 20.4314 90.423 20.1064 89.9937 19.8884C89.5644 19.6703 89.0862 19.5665 88.6051 19.5869C88.1185 19.5646 87.6347 19.6708 87.2023 19.8949C86.7698 20.119 86.4041 20.4531 86.1418 20.8635C85.5858 21.7195 85.3078 22.8315 85.3078 24.1997C85.3078 25.5679 85.5915 26.6873 86.1589 27.5578C86.4163 27.9702 86.7782 28.3072 87.2077 28.5348C87.6373 28.7623 88.1193 28.8724 88.6051 28.8539Z" fill="#1D1D1F"/>
<path d="M99.1099 32.0709V11.0786H102.271V29.3451H111.781V32.0709H99.1099Z" fill="#777B81"/>
<path d="M120.724 32.3896C119.324 32.4284 117.94 32.0837 116.722 31.3927C115.604 30.7252 114.706 29.7445 114.139 28.572C113.508 27.2381 113.197 25.775 113.232 24.2996C113.201 22.8261 113.511 21.3653 114.139 20.032C114.697 18.8539 115.576 17.8575 116.675 17.1578C117.826 16.4523 119.156 16.0935 120.505 16.1244C121.385 16.1226 122.258 16.2715 123.088 16.5645C123.926 16.8612 124.691 17.3329 125.332 17.9481C126.032 18.635 126.567 19.4713 126.898 20.3944C127.311 21.565 127.506 22.801 127.474 24.0418V25.1263H114.973V22.826H124.488C124.503 22.0814 124.337 21.3443 124.002 20.6789C123.687 20.0681 123.21 19.5558 122.623 19.198C121.996 18.8237 121.277 18.634 120.547 18.6509C119.749 18.6325 118.964 18.8536 118.293 19.2855C117.664 19.6917 117.155 20.2583 116.819 20.9269C116.472 21.6039 116.294 22.3548 116.301 23.1154V24.9075C116.276 25.8303 116.467 26.7462 116.858 27.5823C117.202 28.2862 117.747 28.8725 118.424 29.2674C119.14 29.666 119.951 29.8658 120.77 29.8461C121.31 29.8539 121.848 29.7717 122.361 29.603C122.824 29.443 123.247 29.1851 123.601 28.8467C123.957 28.4981 124.23 28.0744 124.401 27.6066L127.299 28.127C127.076 28.9648 126.648 29.7342 126.054 30.3665C125.427 31.025 124.66 31.5344 123.81 31.8571C122.824 32.226 121.777 32.4067 120.724 32.3896Z" fill="#777B81"/>
<path d="M132.747 22.7238V32.071H129.683V16.3262H132.62V18.8891H132.817C133.172 18.0658 133.765 17.3673 134.52 16.883C135.298 16.3772 136.279 16.1243 137.464 16.1243C138.445 16.1034 139.415 16.3354 140.28 16.7979C141.096 17.2518 141.751 17.9476 142.155 18.7894C142.63 19.8106 142.859 20.9292 142.824 22.0551V32.071H139.76V22.4272C139.76 21.2924 139.462 20.4008 138.867 19.7524C138.272 19.1039 137.455 18.7797 136.416 18.7797C135.757 18.7674 135.105 18.9257 134.524 19.2393C133.97 19.553 133.518 20.021 133.223 20.5864C132.889 21.2481 132.725 21.9828 132.747 22.7238Z" fill="#777B81"/>
<path d="M157.508 20.1706L154.726 20.657C154.605 20.2893 154.42 19.946 154.179 19.643C153.909 19.303 153.562 19.0321 153.167 18.8527C152.669 18.6309 152.127 18.5253 151.582 18.5439C150.815 18.5157 150.058 18.7181 149.408 19.125C149.143 19.2753 148.922 19.493 148.768 19.756C148.614 20.019 148.532 20.3181 148.53 20.6229C148.522 20.8655 148.57 21.1066 148.671 21.3274C148.771 21.5481 148.922 21.7423 149.111 21.8947C149.504 22.2189 150.133 22.4823 151.001 22.6849L153.503 23.2564C154.952 23.592 156.032 24.1091 156.742 24.8078C157.096 25.1628 157.373 25.587 157.556 26.0539C157.739 26.5208 157.823 27.0204 157.804 27.5215C157.816 28.4278 157.53 29.3129 156.99 30.0407C156.403 30.8079 155.621 31.4041 154.726 31.7671C153.661 32.201 152.52 32.4129 151.37 32.3896C149.608 32.3896 148.169 32.0135 147.054 31.2613C146.508 30.8947 146.043 30.4185 145.691 29.8631C145.338 29.3076 145.104 28.685 145.004 28.0346L147.966 27.5823C148.108 28.2883 148.514 28.9135 149.102 29.3306C149.774 29.7514 150.559 29.9568 151.351 29.9191C152.355 29.9191 153.155 29.71 153.758 29.2893C154.361 28.8686 154.658 28.3531 154.658 27.7452C154.662 27.5112 154.615 27.279 154.521 27.0648C154.426 26.8507 154.286 26.6597 154.111 26.5051C153.626 26.1141 153.049 25.8537 152.435 25.7488L149.761 25.1628C148.292 24.8272 147.206 24.2947 146.502 23.5652C146.153 23.1939 145.88 22.7572 145.701 22.2802C145.521 21.8032 145.437 21.2953 145.454 20.7858C145.439 19.9114 145.713 19.0565 146.235 18.3542C146.793 17.627 147.536 17.0628 148.387 16.7201C149.385 16.3123 150.455 16.1121 151.533 16.1317C153.235 16.1317 154.574 16.4997 155.55 17.2356C156.528 17.9533 157.221 18.9925 157.508 20.1706Z" fill="#777B81"/>
<path d="M19.5146 48.4407V44.003H21.2921C21.6863 43.974 22.0779 44.087 22.3961 44.3215C22.5153 44.4212 22.6106 44.5464 22.675 44.6878C22.7394 44.8292 22.7712 44.9832 22.7681 45.1386C22.7778 45.3726 22.6958 45.6011 22.5395 45.7757C22.3851 45.9377 22.1849 46.0488 21.9657 46.0942V46.1355C22.1372 46.1419 22.3042 46.1922 22.4506 46.2816C22.5971 46.371 22.7181 46.4966 22.8022 46.6462C22.8971 46.8205 22.9441 47.0168 22.9383 47.2152C22.9423 47.4388 22.8806 47.6586 22.7608 47.8474C22.6365 48.039 22.459 48.1902 22.2502 48.2827C21.9864 48.3965 21.7008 48.4505 21.4137 48.4407H19.5146ZM20.4508 47.6748H21.2216C21.4223 47.6926 21.6229 47.6392 21.7882 47.524C21.8478 47.475 21.8953 47.4128 21.9269 47.3423C21.9586 47.2719 21.9735 47.1951 21.9705 47.1179C21.9732 47.0337 21.9568 46.95 21.9228 46.873C21.8887 46.796 21.8377 46.7276 21.7736 46.6729C21.6255 46.5474 21.4348 46.4838 21.2411 46.4954H20.4508V47.6748ZM20.4508 45.8559H21.1511C21.3253 45.866 21.4975 45.8143 21.6374 45.71C21.6999 45.6607 21.7498 45.5973 21.7832 45.5251C21.8166 45.4528 21.8325 45.3737 21.8295 45.2942C21.8314 45.2213 21.8168 45.1489 21.7869 45.0824C21.7571 45.0159 21.7126 44.957 21.6569 44.91C21.5202 44.7988 21.3462 44.744 21.1705 44.7568H20.4508V45.8559Z" fill="#7E64ED"/>
<path d="M28.378 46.2206C28.3899 46.6501 28.2938 47.0756 28.0984 47.4583C27.9291 47.7823 27.671 48.0514 27.3543 48.234C27.0319 48.4159 26.6667 48.5083 26.2965 48.5015C25.9241 48.5083 25.5565 48.416 25.2315 48.234C24.9196 48.0478 24.6667 47.7772 24.502 47.4534C24.3226 47.0668 24.2297 46.6456 24.2297 46.2194C24.2297 45.7931 24.3226 45.372 24.502 44.9853C24.6662 44.6625 24.9193 44.3933 25.2315 44.2096C25.5569 44.0287 25.9242 43.9365 26.2965 43.9421C26.6665 43.9365 27.0315 44.0288 27.3543 44.2096C27.672 44.3909 27.9305 44.6603 28.0984 44.9853C28.2944 45.3669 28.3906 45.7918 28.378 46.2206ZM27.4248 46.2206C27.4519 45.8364 27.3425 45.4549 27.116 45.1434C27.0131 45.0273 26.8867 44.9343 26.7453 44.8707C26.6038 44.8071 26.4504 44.7741 26.2953 44.7741C26.1402 44.7741 25.9868 44.8071 25.8454 44.8707C25.7039 44.9343 25.5775 45.0273 25.4746 45.1434C25.2758 45.4679 25.1706 45.8412 25.1706 46.2218C25.1706 46.6024 25.2758 46.9757 25.4746 47.3002C25.5775 47.4163 25.7039 47.5093 25.8454 47.5729C25.9868 47.6366 26.1402 47.6695 26.2953 47.6695C26.4504 47.6695 26.6038 47.6366 26.7453 47.5729C26.8867 47.5093 27.0131 47.4163 27.116 47.3002C27.3457 46.989 27.4585 46.6067 27.4345 46.2206H27.4248Z" fill="#7E64ED"/>
<path d="M30.5792 48.4407H29.5774L31.1069 44.0029H32.3227L33.8522 48.4407H32.8479L32.5148 47.4267H30.9148L30.5792 48.4407ZM31.1482 46.6972H32.2765L31.7294 45.0169H31.6954L31.1482 46.6972Z" fill="#7E64ED"/>
<path d="M35.1255 48.4409V44.0031H36.8787C37.3051 43.9768 37.7248 44.1181 38.0483 44.397C38.1895 44.5329 38.3001 44.6973 38.3727 44.8793C38.4452 45.0613 38.4781 45.2567 38.469 45.4524C38.4764 45.7264 38.4065 45.9969 38.2672 46.2329C38.1266 46.4506 37.9231 46.6203 37.6836 46.7193L38.6246 48.4457H37.5912L36.7523 46.87H36.0617V48.4457L35.1255 48.4409ZM36.0617 46.1114H36.7012C37.2329 46.1114 37.4996 45.8917 37.5012 45.4524C37.5012 44.9952 37.2337 44.7691 36.6964 44.7691H36.0617V46.1114Z" fill="#7E64ED"/>
<path d="M41.4534 48.4406H39.8777V44.0029H41.4631C41.8641 43.9916 42.2614 44.082 42.6181 44.2655C42.9378 44.4376 43.1974 44.7031 43.3622 45.0266C43.5469 45.3952 43.6379 45.8036 43.6272 46.2157C43.6378 46.6301 43.5468 47.0409 43.3622 47.4121C43.1944 47.7362 42.9336 48.0029 42.6133 48.178C42.2546 48.3611 41.8559 48.4514 41.4534 48.4406ZM40.809 47.6358H41.4072C41.5806 47.6482 41.7547 47.6249 41.9187 47.5671C42.0827 47.5094 42.233 47.4185 42.3604 47.3002C42.5768 47.0765 42.6838 46.7142 42.6838 46.2157C42.719 45.8298 42.603 45.4454 42.3604 45.1433C42.2345 45.024 42.0852 44.9321 41.9219 44.8735C41.7587 44.8149 41.5851 44.7909 41.412 44.8029H40.809V47.6358Z" fill="#7E64ED"/>
<path d="M48.1615 44.0029V48.4407H47.2229V44.0029H48.1615Z" fill="#7E64ED"/>
<path d="M53.3952 44.0029V48.4407H52.5855L50.6548 45.6443H50.6183V48.4407H49.6821V44.0029H50.5089L52.4226 46.7945H52.4639V44.0029H53.3952Z" fill="#7E64ED"/>
<path d="M54.7467 44.7738V44.0029H58.3942V44.7738H57.0325V48.4407H56.106V44.7738H54.7467Z" fill="#7E64ED"/>
<path d="M59.7411 48.4407V44.0029H62.7345V44.7738H60.6773V45.8315H62.5764V46.6072H60.6773V47.665H62.7393V48.4407H59.7411Z" fill="#7E64ED"/>
<path d="M64.2254 48.4407V44.0029H65.164V47.665H67.0704V48.4407H64.2254Z" fill="#7E64ED"/>
<path d="M68.4342 48.4407V44.0029H69.3728V47.665H71.2768V48.4407H68.4342Z" fill="#7E64ED"/>
<path d="M73.5821 44.0029V48.4407H72.6459V44.0029H73.5821Z" fill="#7E64ED"/>
<path d="M78.0467 45.4376C77.9978 45.242 77.8816 45.0698 77.7185 44.9513C77.544 44.8281 77.3338 44.7657 77.1203 44.7738C76.9629 44.7683 76.8064 44.7992 76.663 44.8642C76.5196 44.9291 76.3931 45.0264 76.2935 45.1483C76.0662 45.4559 75.9551 45.8341 75.9798 46.2158C75.955 46.599 76.0642 46.9789 76.2887 47.2906C76.3887 47.4149 76.5164 47.5139 76.6617 47.5798C76.807 47.6457 76.9658 47.6766 77.1251 47.6699C77.3902 47.6832 77.6506 47.5964 77.8546 47.4267C77.9442 47.344 78.0148 47.243 78.0618 47.1306C78.1088 47.0181 78.131 46.8969 78.127 46.775H77.1859V46.065H79.0437V46.6219C79.0555 46.974 78.9715 47.3228 78.8005 47.631C78.6389 47.9072 78.4019 48.1316 78.1172 48.2778C77.8114 48.432 77.4724 48.5088 77.13 48.5015C76.7456 48.5101 76.366 48.4152 76.0309 48.2267C75.7165 48.0393 75.4631 47.7648 75.3014 47.4365C75.1251 47.0554 75.0338 46.6405 75.0338 46.2206C75.0338 45.8008 75.1251 45.3859 75.3014 45.0048C75.4698 44.6789 75.728 44.4081 76.0455 44.2243C76.3672 44.0402 76.7326 43.9461 77.1033 43.9519C77.4161 43.9479 77.7259 44.0136 78.0103 44.144C78.2739 44.2609 78.5039 44.4424 78.679 44.6717C78.8554 44.8962 78.968 45.1642 79.0048 45.4474L78.0467 45.4376Z" fill="#7E64ED"/>
<path d="M80.4927 48.4407V44.0029H83.486V44.7738H81.4289V45.8315H83.3304V46.6072H81.4289V47.665H83.4909V48.4407H80.4927Z" fill="#7E64ED"/>
<path d="M88.6901 44.0029V48.4407H87.8803L85.9496 45.6443H85.9156V48.4407H84.977V44.0029H85.794L87.7077 46.7945H87.749V44.0029H88.6901Z" fill="#7E64ED"/>
<path d="M94.1274 45.564H93.1791C93.153 45.34 93.0404 45.1349 92.8654 44.9926C92.6821 44.8509 92.455 44.7777 92.2235 44.7859C92.0656 44.78 91.9085 44.8113 91.7649 44.8771C91.6213 44.943 91.4952 45.0417 91.3967 45.1652C91.1949 45.487 91.0879 45.8591 91.0879 46.2388C91.0879 46.6186 91.1949 46.9907 91.3967 47.3124C91.5769 47.5141 91.8243 47.6433 92.0928 47.676C92.3612 47.7086 92.6324 47.6425 92.8557 47.4899C93.0337 47.3543 93.1515 47.1544 93.184 46.9331H94.1323C94.1004 47.2098 94.001 47.4745 93.8429 47.7039C93.6777 47.9499 93.4526 48.1499 93.1888 48.285C92.8887 48.4406 92.5541 48.5175 92.2162 48.5088C91.841 48.5163 91.4707 48.4231 91.1438 48.2388C90.8312 48.0557 90.578 47.7864 90.4143 47.4631C90.2245 47.0789 90.1318 46.6539 90.1444 46.2254C90.1315 45.7972 90.226 45.3726 90.4192 44.9902C90.5834 44.6673 90.8365 44.3982 91.1487 44.2145C91.4699 44.0339 91.8331 43.9416 92.2016 43.947C92.5191 43.9428 92.8337 44.0084 93.1232 44.1391C93.3933 44.2601 93.6277 44.4485 93.804 44.6862C93.9853 44.9462 94.0967 45.2485 94.1274 45.564Z" fill="#7E64ED"/>
<path d="M95.547 48.4407V44.0029H98.5428V44.7738H96.4929V45.8315H98.392V46.6072H96.4929V47.665H98.5549V48.4407H95.547Z" fill="#7E64ED"/>
<path d="M102.195 48.4407V44.0029H105.132V44.7738H103.131V45.8315H104.94V46.6072H103.131V48.4407H102.195Z" fill="#7E64ED"/>
<path d="M110.596 46.2206C110.608 46.6501 110.512 47.0756 110.317 47.4583C110.148 47.7823 109.889 48.0514 109.573 48.234C109.25 48.4159 108.885 48.5083 108.515 48.5015C108.143 48.5083 107.775 48.416 107.45 48.234C107.138 48.0478 106.885 47.7772 106.72 47.4534C106.54 47.067 106.447 46.6458 106.447 46.2194C106.447 45.793 106.54 45.3717 106.72 44.9853C106.885 44.6625 107.138 44.3933 107.45 44.2096C107.775 44.0287 108.143 43.9365 108.515 43.9421C108.885 43.9365 109.25 44.0288 109.573 44.2096C109.89 44.3909 110.149 44.6603 110.317 44.9853C110.513 45.3669 110.609 45.7918 110.596 46.2206ZM109.643 46.2206C109.669 45.8365 109.56 45.4554 109.334 45.1434C109.232 45.0273 109.105 44.9343 108.964 44.8707C108.822 44.8071 108.669 44.7741 108.514 44.7741C108.359 44.7741 108.205 44.8071 108.064 44.8707C107.922 44.9343 107.796 45.0273 107.693 45.1434C107.494 45.4679 107.389 45.8412 107.389 46.2218C107.389 46.6024 107.494 46.9757 107.693 47.3002C107.796 47.4163 107.922 47.5093 108.064 47.5729C108.205 47.6366 108.359 47.6695 108.514 47.6695C108.669 47.6695 108.822 47.6366 108.964 47.5729C109.105 47.5093 109.232 47.4163 109.334 47.3002C109.559 46.9868 109.667 46.6051 109.641 46.2206H109.643Z" fill="#7E64ED"/>
<path d="M112.029 48.4408V44.0031H113.782C114.209 43.9769 114.63 44.1182 114.954 44.397C115.095 44.5331 115.205 44.6976 115.277 44.8796C115.349 45.0615 115.382 45.2568 115.372 45.4523C115.38 45.7263 115.31 45.9968 115.171 46.2329C115.031 46.4505 114.828 46.6202 114.589 46.7192L115.531 48.4457H114.487L113.646 46.87H112.958V48.4457L112.029 48.4408ZM112.968 46.1113H113.605C114.14 46.1113 114.407 45.8917 114.407 45.4523C114.407 44.9952 114.137 44.7691 113.6 44.7691H112.968V46.1113Z" fill="#7E64ED"/>
<path d="M118.777 44.7738V44.0029H122.424V44.7738H121.053V48.4407H120.126V44.7738H118.777Z" fill="#7E64ED"/>
<path d="M123.769 48.4407V44.0029H124.701V45.8315H126.612V44.0029H127.543V48.4407H126.612V46.6072H124.701V48.4407H123.769Z" fill="#7E64ED"/>
<path d="M129.077 48.4407V44.0029H132.07V44.7738H130.013V45.8315H131.912V46.6072H130.013V47.665H132.075V48.4407H129.077Z" fill="#7E64ED"/>
<path d="M136.479 48.4407H135.477L137.007 44.0029H138.222L139.752 48.4407H138.75L138.415 47.4267H136.81L136.479 48.4407ZM137.048 46.6972H138.176L137.629 45.0169H137.588L137.048 46.6972Z" fill="#7E64ED"/>
<path d="M141.965 44.0029V48.4407H141.029V44.0029H141.965Z" fill="#7E64ED"/>
<path d="M145.643 48.4407V44.0029H148.639V44.7738H146.585V45.8315H148.484V46.6072H146.585V47.665H148.647V48.4407H145.643Z" fill="#7E64ED"/>
<path d="M150.131 48.441V44.0032H151.884C152.31 43.9763 152.73 44.1178 153.053 44.3972C153.195 44.533 153.305 44.6974 153.378 44.8794C153.45 45.0614 153.483 45.2568 153.474 45.4525C153.482 45.7265 153.412 45.997 153.272 46.2331C153.132 46.4507 152.928 46.6204 152.689 46.7194L153.63 48.4458H152.596L151.757 46.8701H151.067V48.4458L150.131 48.441ZM151.067 46.1115H151.706C152.24 46.1115 152.506 45.8918 152.506 45.4525C152.506 44.9953 152.239 44.7692 151.701 44.7692H151.067V46.1115Z" fill="#7E64ED"/>
<path d="M155.648 48.4407H154.643L156.173 44.0029H157.389L158.918 48.4407H157.916L157.581 47.4267H155.981L155.648 48.4407ZM156.214 46.6972H157.345L156.798 45.0169H156.761L156.214 46.6972Z" fill="#7E64ED"/>
</g>
<defs>
<clipPath id="clip0_848_10871">
<rect width="159" height="47.9227" fill="white" transform="translate(0.441406 0.578613)"/>
</clipPath>
</defs>
</svg>
